<?xml version="1.0" encoding="UTF-8"?>
<svg xmlns="http://www.w3.org/2000/svg" viewBox="0 0 117.8 71.4">
  <defs>
    <style>
      .cls-1 {
        fill: #fff;
        stroke-width: 0px;
      }
    </style>
  </defs>
  <g>
    <g>
      <path class="cls-1" d="m23.5,71.4c-7.2,0-12.92-1.97-17.15-5.9-4.23-3.93-6.35-9.43-6.35-16.5v-6.6h13.2v6.6c0,3.13.87,5.58,2.6,7.35,1.73,1.77,4.17,2.65,7.3,2.65,2.93,0,5.22-.87,6.85-2.6,1.63-1.73,2.45-4.2,2.45-7.4V12h-12V0h33.2v12h-8v37c0,7.27-1.97,12.82-5.9,16.65-3.93,3.83-9.33,5.75-16.2,5.75Z"/>
      <path class="cls-1" d="m77.4,70L59.6,0h13.6l14.8,61.5h1.4L104.2,0h13.6l-17.8,70h-22.6Z"/>
    </g>
  </g>
</svg>